<mxfile host="app.diagrams.net" agent="Mozilla/5.0 (Windows NT 10.0; Win64; x64) AppleWebKit/537.36 (KHTML, like Gecko) Chrome/131.0.0.0 Safari/537.36" version="24.7.17">
  <diagram id="C5RBs43oDa-KdzZeNtuy" name="Page-1">
    <mxGraphModel dx="4654" dy="2660" grid="1" gridSize="10" guides="1" tooltips="1" connect="1" arrows="1" fold="1" page="1" pageScale="1" pageWidth="827" pageHeight="1169" math="0" shadow="0">
      <root>
        <mxCell id="WIyWlLk6GJQsqaUBKTNV-0" />
        <mxCell id="WIyWlLk6GJQsqaUBKTNV-1" parent="WIyWlLk6GJQsqaUBKTNV-0" />
        <mxCell id="4vPuWXh4gn6PE7Pk4YV6-0" value="&amp;lt;&amp;lt;Usertypes&amp;gt;&amp;gt;" style="swimlane;fontStyle=1;align=center;verticalAlign=top;childLayout=stackLayout;horizontal=1;startSize=26;horizontalStack=0;resizeParent=1;resizeParentMax=0;resizeLast=0;collapsible=1;marginBottom=0;whiteSpace=wrap;html=1;" vertex="1" parent="WIyWlLk6GJQsqaUBKTNV-1">
          <mxGeometry x="-780" y="-54" width="170" height="400" as="geometry" />
        </mxCell>
        <mxCell id="4vPuWXh4gn6PE7Pk4YV6-1" value="# firstName: String&lt;div&gt;# lastName: String&lt;/div&gt;&lt;div&gt;# employeeID: int&lt;/div&gt;&lt;div&gt;&lt;span style=&quot;background-color: initial;&quot;&gt;# email: String&lt;/span&gt;&lt;/div&gt;&lt;div&gt;&lt;span style=&quot;background-color: initial;&quot;&gt;# phoneNumber: String&lt;/span&gt;&lt;/div&gt;&lt;div&gt;&lt;span style=&quot;background-color: initial;&quot;&gt;# maritalStatus: Boolean&lt;/span&gt;&lt;/div&gt;&lt;div&gt;&lt;span style=&quot;background-color: initial;&quot;&gt;# PPSN: String&lt;/span&gt;&lt;/div&gt;&lt;div&gt;+ occupation: Occupation&lt;/div&gt;&lt;div&gt;# userType: String&lt;/div&gt;&lt;div&gt;# unionFees: String&lt;/div&gt;" style="text;strokeColor=none;fillColor=none;align=left;verticalAlign=top;spacingLeft=4;spacingRight=4;overflow=hidden;rotatable=0;points=[[0,0.5],[1,0.5]];portConstraint=eastwest;whiteSpace=wrap;html=1;" vertex="1" parent="4vPuWXh4gn6PE7Pk4YV6-0">
          <mxGeometry y="26" width="170" height="154" as="geometry" />
        </mxCell>
        <mxCell id="4vPuWXh4gn6PE7Pk4YV6-2" value="" style="line;strokeWidth=1;fillColor=none;align=left;verticalAlign=middle;spacingTop=-1;spacingLeft=3;spacingRight=3;rotatable=0;labelPosition=right;points=[];portConstraint=eastwest;strokeColor=inherit;" vertex="1" parent="4vPuWXh4gn6PE7Pk4YV6-0">
          <mxGeometry y="180" width="170" height="8" as="geometry" />
        </mxCell>
        <mxCell id="4vPuWXh4gn6PE7Pk4YV6-3" value="+ getFirstName(): String&lt;div&gt;+ getLastName(): String&lt;/div&gt;&lt;div&gt;+ getMaritalStatus(): Boolean&lt;/div&gt;&lt;div&gt;&lt;span style=&quot;background-color: initial;&quot;&gt;+ getEmployeeID(): int&lt;/span&gt;&lt;/div&gt;&lt;div&gt;&lt;span style=&quot;background-color: initial;&quot;&gt;+ getEmail(): String&lt;/span&gt;&lt;/div&gt;&lt;div&gt;&lt;span style=&quot;background-color: initial;&quot;&gt;+ getPhoneNumber(): String&lt;/span&gt;&lt;/div&gt;&lt;div&gt;&lt;span style=&quot;background-color: initial;&quot;&gt;+ getPPSN(): String&lt;/span&gt;&lt;/div&gt;&lt;div&gt;&lt;span style=&quot;background-color: initial;&quot;&gt;+ getUserType(): String&lt;/span&gt;&lt;/div&gt;&lt;div&gt;&lt;span style=&quot;background-color: initial;&quot;&gt;+ getUnionFees(): String&lt;/span&gt;&lt;/div&gt;&lt;div&gt;&lt;span style=&quot;background-color: initial;&quot;&gt;+ getSalary(): double&lt;/span&gt;&lt;/div&gt;&lt;div&gt;&lt;span style=&quot;background-color: initial;&quot;&gt;+ AccessEmployeeList: abstract boolean&lt;/span&gt;&lt;/div&gt;&lt;div&gt;&lt;span style=&quot;background-color: initial;&quot;&gt;+ toString(): String&lt;/span&gt;&lt;/div&gt;&lt;div&gt;&lt;span style=&quot;background-color: initial;&quot;&gt;+ toCSV(): String&lt;/span&gt;&lt;/div&gt;" style="text;strokeColor=none;fillColor=none;align=left;verticalAlign=top;spacingLeft=4;spacingRight=4;overflow=hidden;rotatable=0;points=[[0,0.5],[1,0.5]];portConstraint=eastwest;whiteSpace=wrap;html=1;" vertex="1" parent="4vPuWXh4gn6PE7Pk4YV6-0">
          <mxGeometry y="188" width="170" height="212" as="geometry" />
        </mxCell>
        <mxCell id="4vPuWXh4gn6PE7Pk4YV6-5" value="PartTime" style="swimlane;fontStyle=1;align=center;verticalAlign=top;childLayout=stackLayout;horizontal=1;startSize=26;horizontalStack=0;resizeParent=1;resizeParentMax=0;resizeLast=0;collapsible=1;marginBottom=0;whiteSpace=wrap;html=1;" vertex="1" parent="WIyWlLk6GJQsqaUBKTNV-1">
          <mxGeometry x="-540" y="-110" width="230" height="20" as="geometry" />
        </mxCell>
        <mxCell id="4vPuWXh4gn6PE7Pk4YV6-12" value="" style="shape=folder;fontStyle=1;spacingTop=10;tabWidth=40;tabHeight=14;tabPosition=left;html=1;whiteSpace=wrap;fillColor=none;" vertex="1" parent="WIyWlLk6GJQsqaUBKTNV-1">
          <mxGeometry x="-820" y="-150" width="540" height="806" as="geometry" />
        </mxCell>
        <mxCell id="4vPuWXh4gn6PE7Pk4YV6-13" value="" style="endArrow=block;endSize=16;endFill=0;html=1;rounded=0;exitX=0;exitY=0.5;exitDx=0;exitDy=0;" edge="1" parent="WIyWlLk6GJQsqaUBKTNV-1">
          <mxGeometry width="160" relative="1" as="geometry">
            <mxPoint x="-540" y="-102" as="sourcePoint" />
            <mxPoint x="-610" y="10" as="targetPoint" />
            <Array as="points">
              <mxPoint x="-580" y="-102" />
              <mxPoint x="-580" y="-22" />
              <mxPoint x="-580" y="-10" />
              <mxPoint x="-580" y="10" />
            </Array>
          </mxGeometry>
        </mxCell>
        <mxCell id="4vPuWXh4gn6PE7Pk4YV6-18" value="HR" style="swimlane;fontStyle=0;childLayout=stackLayout;horizontal=1;startSize=26;fillColor=none;horizontalStack=0;resizeParent=1;resizeParentMax=0;resizeLast=0;collapsible=1;marginBottom=0;whiteSpace=wrap;html=1;" vertex="1" parent="WIyWlLk6GJQsqaUBKTNV-1">
          <mxGeometry x="-540" y="20" width="190" height="20" as="geometry" />
        </mxCell>
        <mxCell id="4vPuWXh4gn6PE7Pk4YV6-22" value="" style="endArrow=block;endSize=16;endFill=0;html=1;rounded=0;exitX=0;exitY=0.5;exitDx=0;exitDy=0;" edge="1" parent="WIyWlLk6GJQsqaUBKTNV-1" source="4vPuWXh4gn6PE7Pk4YV6-18">
          <mxGeometry width="160" relative="1" as="geometry">
            <mxPoint x="-540" y="49" as="sourcePoint" />
            <mxPoint x="-610" y="80" as="targetPoint" />
            <Array as="points">
              <mxPoint x="-580" y="30" />
              <mxPoint x="-580" y="60" />
              <mxPoint x="-580" y="80" />
            </Array>
          </mxGeometry>
        </mxCell>
        <mxCell id="4vPuWXh4gn6PE7Pk4YV6-23" value="Admin" style="swimlane;fontStyle=0;childLayout=stackLayout;horizontal=1;startSize=26;fillColor=none;horizontalStack=0;resizeParent=1;resizeParentMax=0;resizeLast=0;collapsible=1;marginBottom=0;whiteSpace=wrap;html=1;" vertex="1" parent="WIyWlLk6GJQsqaUBKTNV-1">
          <mxGeometry x="-540" y="210" width="190" height="20" as="geometry" />
        </mxCell>
        <mxCell id="4vPuWXh4gn6PE7Pk4YV6-25" value="" style="endArrow=block;endSize=16;endFill=0;html=1;rounded=0;exitX=0;exitY=0.5;exitDx=0;exitDy=0;" edge="1" parent="WIyWlLk6GJQsqaUBKTNV-1" source="4vPuWXh4gn6PE7Pk4YV6-23">
          <mxGeometry width="160" relative="1" as="geometry">
            <mxPoint x="-540" y="250" as="sourcePoint" />
            <mxPoint x="-610" y="281" as="targetPoint" />
            <Array as="points">
              <mxPoint x="-580" y="220" />
              <mxPoint x="-580" y="261" />
              <mxPoint x="-580" y="281" />
            </Array>
          </mxGeometry>
        </mxCell>
        <mxCell id="4vPuWXh4gn6PE7Pk4YV6-26" value="Employee" style="swimlane;fontStyle=0;childLayout=stackLayout;horizontal=1;startSize=26;fillColor=none;horizontalStack=0;resizeParent=1;resizeParentMax=0;resizeLast=0;collapsible=1;marginBottom=0;whiteSpace=wrap;html=1;" vertex="1" parent="WIyWlLk6GJQsqaUBKTNV-1">
          <mxGeometry x="-790" y="414" width="190" height="26" as="geometry" />
        </mxCell>
        <mxCell id="4vPuWXh4gn6PE7Pk4YV6-28" value="" style="endArrow=block;endSize=16;endFill=0;html=1;rounded=0;exitX=0.5;exitY=0;exitDx=0;exitDy=0;entryX=0.502;entryY=1;entryDx=0;entryDy=0;entryPerimeter=0;" edge="1" parent="WIyWlLk6GJQsqaUBKTNV-1" source="4vPuWXh4gn6PE7Pk4YV6-26" target="4vPuWXh4gn6PE7Pk4YV6-3">
          <mxGeometry width="160" relative="1" as="geometry">
            <mxPoint x="-560" y="350" as="sourcePoint" />
            <mxPoint x="-400" y="350" as="targetPoint" />
          </mxGeometry>
        </mxCell>
        <mxCell id="4vPuWXh4gn6PE7Pk4YV6-29" value="Employees" style="swimlane;fontStyle=1;align=center;verticalAlign=top;childLayout=stackLayout;horizontal=1;startSize=26;horizontalStack=0;resizeParent=1;resizeParentMax=0;resizeLast=0;collapsible=1;marginBottom=0;whiteSpace=wrap;html=1;" vertex="1" parent="WIyWlLk6GJQsqaUBKTNV-1">
          <mxGeometry x="-560" y="430" width="230" height="30" as="geometry" />
        </mxCell>
        <mxCell id="4vPuWXh4gn6PE7Pk4YV6-31" value="" style="line;strokeWidth=1;fillColor=none;align=left;verticalAlign=middle;spacingTop=-1;spacingLeft=3;spacingRight=3;rotatable=0;labelPosition=right;points=[];portConstraint=eastwest;strokeColor=inherit;" vertex="1" parent="4vPuWXh4gn6PE7Pk4YV6-29">
          <mxGeometry y="26" width="230" height="4" as="geometry" />
        </mxCell>
        <mxCell id="4vPuWXh4gn6PE7Pk4YV6-35" value="" style="endArrow=open;html=1;endSize=12;startArrow=diamondThin;startSize=14;startFill=0;edgeStyle=orthogonalEdgeStyle;align=left;verticalAlign=bottom;rounded=0;entryX=0.652;entryY=0.5;entryDx=0;entryDy=0;entryPerimeter=0;exitX=0.765;exitY=1.019;exitDx=0;exitDy=0;exitPerimeter=0;" edge="1" parent="WIyWlLk6GJQsqaUBKTNV-1" source="4vPuWXh4gn6PE7Pk4YV6-3" target="4vPuWXh4gn6PE7Pk4YV6-31">
          <mxGeometry x="-1" y="3" relative="1" as="geometry">
            <mxPoint x="-650" y="370" as="sourcePoint" />
            <mxPoint x="-329.0799999999999" y="529.0239999999999" as="targetPoint" />
            <Array as="points">
              <mxPoint x="-650" y="400" />
              <mxPoint x="-310" y="400" />
              <mxPoint x="-310" y="529" />
              <mxPoint x="-410" y="529" />
            </Array>
          </mxGeometry>
        </mxCell>
        <mxCell id="4vPuWXh4gn6PE7Pk4YV6-36" value="PaymentProcess" style="swimlane;fontStyle=1;align=center;verticalAlign=top;childLayout=stackLayout;horizontal=1;startSize=26;horizontalStack=0;resizeParent=1;resizeParentMax=0;resizeLast=0;collapsible=1;marginBottom=0;whiteSpace=wrap;html=1;" vertex="1" parent="WIyWlLk6GJQsqaUBKTNV-1">
          <mxGeometry x="-20" y="-110" width="190" height="34" as="geometry" />
        </mxCell>
        <mxCell id="4vPuWXh4gn6PE7Pk4YV6-38" value="" style="line;strokeWidth=1;fillColor=none;align=left;verticalAlign=middle;spacingTop=-1;spacingLeft=3;spacingRight=3;rotatable=0;labelPosition=right;points=[];portConstraint=eastwest;strokeColor=inherit;" vertex="1" parent="4vPuWXh4gn6PE7Pk4YV6-36">
          <mxGeometry y="26" width="190" height="8" as="geometry" />
        </mxCell>
        <mxCell id="4vPuWXh4gn6PE7Pk4YV6-40" value="Payslip" style="swimlane;fontStyle=1;align=center;verticalAlign=top;childLayout=stackLayout;horizontal=1;startSize=26;horizontalStack=0;resizeParent=1;resizeParentMax=0;resizeLast=0;collapsible=1;marginBottom=0;whiteSpace=wrap;html=1;" vertex="1" parent="WIyWlLk6GJQsqaUBKTNV-1">
          <mxGeometry x="260" y="-170" width="260" height="34" as="geometry" />
        </mxCell>
        <mxCell id="4vPuWXh4gn6PE7Pk4YV6-42" value="" style="line;strokeWidth=1;fillColor=none;align=left;verticalAlign=middle;spacingTop=-1;spacingLeft=3;spacingRight=3;rotatable=0;labelPosition=right;points=[];portConstraint=eastwest;strokeColor=inherit;" vertex="1" parent="4vPuWXh4gn6PE7Pk4YV6-40">
          <mxGeometry y="26" width="260" height="8" as="geometry" />
        </mxCell>
        <mxCell id="4vPuWXh4gn6PE7Pk4YV6-44" value="" style="endArrow=open;html=1;endSize=12;startArrow=diamondThin;startSize=14;startFill=1;edgeStyle=orthogonalEdgeStyle;align=left;verticalAlign=bottom;rounded=0;entryX=0;entryY=0.202;entryDx=0;entryDy=0;entryPerimeter=0;exitX=1.007;exitY=0.232;exitDx=0;exitDy=0;exitPerimeter=0;" edge="1" parent="WIyWlLk6GJQsqaUBKTNV-1">
          <mxGeometry x="-1" y="3" relative="1" as="geometry">
            <mxPoint x="171.32999999999993" y="-91.3119999999999" as="sourcePoint" />
            <mxPoint x="349.9999999999998" y="-139.27600000000007" as="targetPoint" />
          </mxGeometry>
        </mxCell>
        <mxCell id="4vPuWXh4gn6PE7Pk4YV6-45" value="" style="endArrow=open;html=1;endSize=12;startArrow=diamondThin;startSize=14;startFill=1;edgeStyle=orthogonalEdgeStyle;align=left;verticalAlign=bottom;rounded=0;exitX=0.45;exitY=0.002;exitDx=0;exitDy=0;exitPerimeter=0;entryX=0.426;entryY=-0.05;entryDx=0;entryDy=0;entryPerimeter=0;" edge="1" parent="WIyWlLk6GJQsqaUBKTNV-1" source="4vPuWXh4gn6PE7Pk4YV6-0" target="4vPuWXh4gn6PE7Pk4YV6-40">
          <mxGeometry x="-1" y="3" relative="1" as="geometry">
            <mxPoint x="-660" y="-260" as="sourcePoint" />
            <mxPoint x="370" y="-200" as="targetPoint" />
            <Array as="points">
              <mxPoint x="-704" y="-280" />
              <mxPoint x="480" y="-280" />
              <mxPoint x="480" y="-210" />
              <mxPoint x="371" y="-210" />
            </Array>
          </mxGeometry>
        </mxCell>
        <mxCell id="4vPuWXh4gn6PE7Pk4YV6-46" value="PayslipHistory" style="swimlane;fontStyle=1;align=center;verticalAlign=top;childLayout=stackLayout;horizontal=1;startSize=26;horizontalStack=0;resizeParent=1;resizeParentMax=0;resizeLast=0;collapsible=1;marginBottom=0;whiteSpace=wrap;html=1;" vertex="1" parent="WIyWlLk6GJQsqaUBKTNV-1">
          <mxGeometry x="372.5" y="-76" width="245" height="34" as="geometry" />
        </mxCell>
        <mxCell id="4vPuWXh4gn6PE7Pk4YV6-48" value="" style="line;strokeWidth=1;fillColor=none;align=left;verticalAlign=middle;spacingTop=-1;spacingLeft=3;spacingRight=3;rotatable=0;labelPosition=right;points=[];portConstraint=eastwest;strokeColor=inherit;" vertex="1" parent="4vPuWXh4gn6PE7Pk4YV6-46">
          <mxGeometry y="26" width="245" height="8" as="geometry" />
        </mxCell>
        <mxCell id="4vPuWXh4gn6PE7Pk4YV6-50" value="PaymentCycleManager" style="swimlane;fontStyle=1;align=center;verticalAlign=top;childLayout=stackLayout;horizontal=1;startSize=26;horizontalStack=0;resizeParent=1;resizeParentMax=0;resizeLast=0;collapsible=1;marginBottom=0;whiteSpace=wrap;html=1;" vertex="1" parent="WIyWlLk6GJQsqaUBKTNV-1">
          <mxGeometry x="370" y="112" width="250" height="34" as="geometry" />
        </mxCell>
        <mxCell id="4vPuWXh4gn6PE7Pk4YV6-52" value="" style="line;strokeWidth=1;fillColor=none;align=left;verticalAlign=middle;spacingTop=-1;spacingLeft=3;spacingRight=3;rotatable=0;labelPosition=right;points=[];portConstraint=eastwest;strokeColor=inherit;" vertex="1" parent="4vPuWXh4gn6PE7Pk4YV6-50">
          <mxGeometry y="26" width="250" height="8" as="geometry" />
        </mxCell>
        <mxCell id="4vPuWXh4gn6PE7Pk4YV6-54" value="" style="endArrow=open;html=1;endSize=12;startArrow=diamondThin;startSize=14;startFill=1;edgeStyle=orthogonalEdgeStyle;align=left;verticalAlign=bottom;rounded=0;" edge="1" parent="WIyWlLk6GJQsqaUBKTNV-1" target="4vPuWXh4gn6PE7Pk4YV6-50">
          <mxGeometry x="-1" y="3" relative="1" as="geometry">
            <mxPoint x="482.5" y="-38" as="sourcePoint" />
            <mxPoint x="487.5" y="97" as="targetPoint" />
          </mxGeometry>
        </mxCell>
        <mxCell id="4vPuWXh4gn6PE7Pk4YV6-56" value="Occupation" style="swimlane;fontStyle=1;align=center;verticalAlign=top;childLayout=stackLayout;horizontal=1;startSize=26;horizontalStack=0;resizeParent=1;resizeParentMax=0;resizeLast=0;collapsible=1;marginBottom=0;whiteSpace=wrap;html=1;" vertex="1" parent="WIyWlLk6GJQsqaUBKTNV-1">
          <mxGeometry x="-20" y="346" width="160" height="34" as="geometry" />
        </mxCell>
        <mxCell id="4vPuWXh4gn6PE7Pk4YV6-58" value="" style="line;strokeWidth=1;fillColor=none;align=left;verticalAlign=middle;spacingTop=-1;spacingLeft=3;spacingRight=3;rotatable=0;labelPosition=right;points=[];portConstraint=eastwest;strokeColor=inherit;" vertex="1" parent="4vPuWXh4gn6PE7Pk4YV6-56">
          <mxGeometry y="26" width="160" height="8" as="geometry" />
        </mxCell>
        <mxCell id="4vPuWXh4gn6PE7Pk4YV6-60" value="OccupationMenu" style="swimlane;fontStyle=1;align=center;verticalAlign=top;childLayout=stackLayout;horizontal=1;startSize=26;horizontalStack=0;resizeParent=1;resizeParentMax=0;resizeLast=0;collapsible=1;marginBottom=0;whiteSpace=wrap;html=1;" vertex="1" parent="WIyWlLk6GJQsqaUBKTNV-1">
          <mxGeometry x="260" y="330" width="160" height="34" as="geometry" />
        </mxCell>
        <mxCell id="4vPuWXh4gn6PE7Pk4YV6-62" value="" style="line;strokeWidth=1;fillColor=none;align=left;verticalAlign=middle;spacingTop=-1;spacingLeft=3;spacingRight=3;rotatable=0;labelPosition=right;points=[];portConstraint=eastwest;strokeColor=inherit;" vertex="1" parent="4vPuWXh4gn6PE7Pk4YV6-60">
          <mxGeometry y="26" width="160" height="8" as="geometry" />
        </mxCell>
        <mxCell id="4vPuWXh4gn6PE7Pk4YV6-64" value="PromotionManager" style="swimlane;fontStyle=1;align=center;verticalAlign=top;childLayout=stackLayout;horizontal=1;startSize=26;horizontalStack=0;resizeParent=1;resizeParentMax=0;resizeLast=0;collapsible=1;marginBottom=0;whiteSpace=wrap;html=1;" vertex="1" parent="WIyWlLk6GJQsqaUBKTNV-1">
          <mxGeometry x="100" y="450" width="160" height="34" as="geometry" />
        </mxCell>
        <mxCell id="4vPuWXh4gn6PE7Pk4YV6-66" value="" style="line;strokeWidth=1;fillColor=none;align=left;verticalAlign=middle;spacingTop=-1;spacingLeft=3;spacingRight=3;rotatable=0;labelPosition=right;points=[];portConstraint=eastwest;strokeColor=inherit;" vertex="1" parent="4vPuWXh4gn6PE7Pk4YV6-64">
          <mxGeometry y="26" width="160" height="8" as="geometry" />
        </mxCell>
        <mxCell id="4vPuWXh4gn6PE7Pk4YV6-68" value="«interface»&lt;br&gt;&lt;b&gt;FormatManager&lt;/b&gt;" style="html=1;whiteSpace=wrap;" vertex="1" parent="WIyWlLk6GJQsqaUBKTNV-1">
          <mxGeometry x="390" y="480" width="110" height="50" as="geometry" />
        </mxCell>
        <mxCell id="4vPuWXh4gn6PE7Pk4YV6-69" value="" style="endArrow=block;dashed=1;endFill=0;endSize=12;html=1;rounded=0;exitX=0;exitY=0.5;exitDx=0;exitDy=0;entryX=1;entryY=0.5;entryDx=0;entryDy=0;" edge="1" parent="WIyWlLk6GJQsqaUBKTNV-1" source="4vPuWXh4gn6PE7Pk4YV6-68" target="4vPuWXh4gn6PE7Pk4YV6-64">
          <mxGeometry width="160" relative="1" as="geometry">
            <mxPoint x="270" y="466.52" as="sourcePoint" />
            <mxPoint x="290" y="560" as="targetPoint" />
            <Array as="points">
              <mxPoint x="330" y="467" />
            </Array>
          </mxGeometry>
        </mxCell>
        <mxCell id="4vPuWXh4gn6PE7Pk4YV6-71" value="" style="shape=folder;fontStyle=1;spacingTop=10;tabWidth=40;tabHeight=14;tabPosition=left;html=1;whiteSpace=wrap;fillColor=none;" vertex="1" parent="WIyWlLk6GJQsqaUBKTNV-1">
          <mxGeometry x="-50" y="295" width="570" height="300" as="geometry" />
        </mxCell>
        <mxCell id="4vPuWXh4gn6PE7Pk4YV6-72" value="CSVReader" style="swimlane;fontStyle=1;align=center;verticalAlign=top;childLayout=stackLayout;horizontal=1;startSize=26;horizontalStack=0;resizeParent=1;resizeParentMax=0;resizeLast=0;collapsible=1;marginBottom=0;whiteSpace=wrap;html=1;" vertex="1" parent="WIyWlLk6GJQsqaUBKTNV-1">
          <mxGeometry x="-500" y="740" width="190" height="34" as="geometry" />
        </mxCell>
        <mxCell id="4vPuWXh4gn6PE7Pk4YV6-74" value="" style="line;strokeWidth=1;fillColor=none;align=left;verticalAlign=middle;spacingTop=-1;spacingLeft=3;spacingRight=3;rotatable=0;labelPosition=right;points=[];portConstraint=eastwest;strokeColor=inherit;" vertex="1" parent="4vPuWXh4gn6PE7Pk4YV6-72">
          <mxGeometry y="26" width="190" height="8" as="geometry" />
        </mxCell>
        <mxCell id="4vPuWXh4gn6PE7Pk4YV6-76" value="CSVWriter" style="swimlane;fontStyle=1;align=center;verticalAlign=top;childLayout=stackLayout;horizontal=1;startSize=26;horizontalStack=0;resizeParent=1;resizeParentMax=0;resizeLast=0;collapsible=1;marginBottom=0;whiteSpace=wrap;html=1;" vertex="1" parent="WIyWlLk6GJQsqaUBKTNV-1">
          <mxGeometry x="-220" y="740" width="160" height="34" as="geometry" />
        </mxCell>
        <mxCell id="4vPuWXh4gn6PE7Pk4YV6-78" value="" style="line;strokeWidth=1;fillColor=none;align=left;verticalAlign=middle;spacingTop=-1;spacingLeft=3;spacingRight=3;rotatable=0;labelPosition=right;points=[];portConstraint=eastwest;strokeColor=inherit;" vertex="1" parent="4vPuWXh4gn6PE7Pk4YV6-76">
          <mxGeometry y="26" width="160" height="8" as="geometry" />
        </mxCell>
        <mxCell id="4vPuWXh4gn6PE7Pk4YV6-81" value="FolderReader" style="swimlane;fontStyle=1;align=center;verticalAlign=top;childLayout=stackLayout;horizontal=1;startSize=26;horizontalStack=0;resizeParent=1;resizeParentMax=0;resizeLast=0;collapsible=1;marginBottom=0;whiteSpace=wrap;html=1;" vertex="1" parent="WIyWlLk6GJQsqaUBKTNV-1">
          <mxGeometry x="-355" y="810" width="160" height="34" as="geometry" />
        </mxCell>
        <mxCell id="4vPuWXh4gn6PE7Pk4YV6-83" value="" style="line;strokeWidth=1;fillColor=none;align=left;verticalAlign=middle;spacingTop=-1;spacingLeft=3;spacingRight=3;rotatable=0;labelPosition=right;points=[];portConstraint=eastwest;strokeColor=inherit;" vertex="1" parent="4vPuWXh4gn6PE7Pk4YV6-81">
          <mxGeometry y="26" width="160" height="8" as="geometry" />
        </mxCell>
        <mxCell id="4vPuWXh4gn6PE7Pk4YV6-85" value="" style="shape=folder;fontStyle=1;spacingTop=10;tabWidth=40;tabHeight=14;tabPosition=left;html=1;whiteSpace=wrap;fillColor=none;" vertex="1" parent="WIyWlLk6GJQsqaUBKTNV-1">
          <mxGeometry x="-520" y="710" width="470" height="150" as="geometry" />
        </mxCell>
        <mxCell id="4vPuWXh4gn6PE7Pk4YV6-86" value="FileHandler.*" style="endArrow=open;endSize=12;dashed=1;html=1;rounded=0;exitX=0.439;exitY=-0.001;exitDx=0;exitDy=0;entryX=0.598;entryY=0.113;entryDx=0;entryDy=0;entryPerimeter=0;exitPerimeter=0;" edge="1" parent="WIyWlLk6GJQsqaUBKTNV-1" source="4vPuWXh4gn6PE7Pk4YV6-60" target="4vPuWXh4gn6PE7Pk4YV6-85">
          <mxGeometry x="0.8524" y="-2" width="160" relative="1" as="geometry">
            <mxPoint x="-150" y="530" as="sourcePoint" />
            <mxPoint x="-220" y="610" as="targetPoint" />
            <Array as="points">
              <mxPoint x="330" y="290" />
              <mxPoint x="-230" y="290" />
              <mxPoint x="-230" y="610" />
              <mxPoint x="-230" y="630" />
            </Array>
            <mxPoint as="offset" />
          </mxGeometry>
        </mxCell>
        <mxCell id="4vPuWXh4gn6PE7Pk4YV6-87" value="FileHanlder.CSVReader" style="endArrow=open;endSize=12;dashed=1;html=1;rounded=0;exitX=0.5;exitY=1;exitDx=0;exitDy=0;entryX=1.001;entryY=0.389;entryDx=0;entryDy=0;entryPerimeter=0;" edge="1" parent="WIyWlLk6GJQsqaUBKTNV-1" source="4vPuWXh4gn6PE7Pk4YV6-64" target="4vPuWXh4gn6PE7Pk4YV6-85">
          <mxGeometry x="0.4685" width="160" relative="1" as="geometry">
            <mxPoint x="-60" y="670" as="sourcePoint" />
            <mxPoint x="100" y="670" as="targetPoint" />
            <Array as="points">
              <mxPoint x="180" y="650" />
              <mxPoint x="180" y="770" />
              <mxPoint x="40" y="770" />
            </Array>
            <mxPoint as="offset" />
          </mxGeometry>
        </mxCell>
        <mxCell id="4vPuWXh4gn6PE7Pk4YV6-88" value="FileHandler.CSVWriter" style="endArrow=open;endSize=12;dashed=1;html=1;rounded=0;exitX=0.25;exitY=1;exitDx=0;exitDy=0;entryX=1.003;entryY=0.209;entryDx=0;entryDy=0;entryPerimeter=0;" edge="1" parent="WIyWlLk6GJQsqaUBKTNV-1" source="4vPuWXh4gn6PE7Pk4YV6-64" target="4vPuWXh4gn6PE7Pk4YV6-85">
          <mxGeometry x="0.2438" y="1" width="160" relative="1" as="geometry">
            <mxPoint x="140" y="730" as="sourcePoint" />
            <mxPoint x="300" y="730" as="targetPoint" />
            <Array as="points">
              <mxPoint x="140" y="620" />
              <mxPoint x="140" y="740" />
              <mxPoint x="-20" y="741" />
            </Array>
            <mxPoint as="offset" />
          </mxGeometry>
        </mxCell>
        <mxCell id="4vPuWXh4gn6PE7Pk4YV6-89" value="UserType.Employees" style="endArrow=open;endSize=12;dashed=1;html=1;rounded=0;exitX=0;exitY=0.5;exitDx=0;exitDy=0;entryX=1.004;entryY=0.865;entryDx=0;entryDy=0;entryPerimeter=0;" edge="1" parent="WIyWlLk6GJQsqaUBKTNV-1" source="4vPuWXh4gn6PE7Pk4YV6-64" target="4vPuWXh4gn6PE7Pk4YV6-12">
          <mxGeometry x="0.0874" y="3" width="160" relative="1" as="geometry">
            <mxPoint x="-250" y="560" as="sourcePoint" />
            <mxPoint x="-90" y="560" as="targetPoint" />
            <mxPoint as="offset" />
          </mxGeometry>
        </mxCell>
        <mxCell id="4vPuWXh4gn6PE7Pk4YV6-90" value="UserType.UserTypes" style="endArrow=open;endSize=12;dashed=1;html=1;rounded=0;entryX=1.004;entryY=0.894;entryDx=0;entryDy=0;entryPerimeter=0;" edge="1" parent="WIyWlLk6GJQsqaUBKTNV-1" target="4vPuWXh4gn6PE7Pk4YV6-12">
          <mxGeometry x="0.3597" y="3" width="160" relative="1" as="geometry">
            <mxPoint x="100" y="480" as="sourcePoint" />
            <mxPoint x="-90" y="560" as="targetPoint" />
            <mxPoint as="offset" />
          </mxGeometry>
        </mxCell>
        <mxCell id="4vPuWXh4gn6PE7Pk4YV6-91" value="UserType.UserTypes" style="endArrow=open;endSize=12;dashed=1;html=1;rounded=0;entryX=1.005;entryY=0.433;entryDx=0;entryDy=0;entryPerimeter=0;" edge="1" parent="WIyWlLk6GJQsqaUBKTNV-1" target="4vPuWXh4gn6PE7Pk4YV6-12">
          <mxGeometry x="0.5064" width="160" relative="1" as="geometry">
            <mxPoint x="370" y="120" as="sourcePoint" />
            <mxPoint x="-220" y="120" as="targetPoint" />
            <mxPoint as="offset" />
          </mxGeometry>
        </mxCell>
        <mxCell id="4vPuWXh4gn6PE7Pk4YV6-92" value="UserType.Employees" style="endArrow=open;endSize=12;dashed=1;html=1;rounded=0;entryX=0.999;entryY=0.491;entryDx=0;entryDy=0;entryPerimeter=0;" edge="1" parent="WIyWlLk6GJQsqaUBKTNV-1" target="4vPuWXh4gn6PE7Pk4YV6-12">
          <mxGeometry x="0.5305" y="3" width="160" relative="1" as="geometry">
            <mxPoint x="370" y="129" as="sourcePoint" />
            <mxPoint x="-301.14281063988096" y="163" as="targetPoint" />
            <mxPoint as="offset" />
          </mxGeometry>
        </mxCell>
        <mxCell id="4vPuWXh4gn6PE7Pk4YV6-93" value="UserType.UserTypes" style="endArrow=open;endSize=12;dashed=1;html=1;rounded=0;exitX=0;exitY=0.5;exitDx=0;exitDy=0;entryX=0.998;entryY=0.114;entryDx=0;entryDy=0;entryPerimeter=0;" edge="1" parent="WIyWlLk6GJQsqaUBKTNV-1" source="4vPuWXh4gn6PE7Pk4YV6-40" target="4vPuWXh4gn6PE7Pk4YV6-12">
          <mxGeometry x="0.6194" y="1" width="160" relative="1" as="geometry">
            <mxPoint x="70" y="-171.25" as="sourcePoint" />
            <mxPoint x="230" y="-171.25" as="targetPoint" />
            <mxPoint as="offset" />
          </mxGeometry>
        </mxCell>
        <mxCell id="4vPuWXh4gn6PE7Pk4YV6-94" value="FileHandler.*" style="endArrow=open;endSize=12;dashed=1;html=1;rounded=0;entryX=0.993;entryY=0.614;entryDx=0;entryDy=0;entryPerimeter=0;" edge="1" parent="WIyWlLk6GJQsqaUBKTNV-1" target="4vPuWXh4gn6PE7Pk4YV6-85">
          <mxGeometry width="160" relative="1" as="geometry">
            <mxPoint x="520" y="-153.63" as="sourcePoint" />
            <mxPoint x="580" y="760" as="targetPoint" />
            <Array as="points">
              <mxPoint x="630" y="-154" />
              <mxPoint x="760" y="-154" />
              <mxPoint x="760" y="340" />
              <mxPoint x="760" y="580" />
              <mxPoint x="760" y="802" />
            </Array>
          </mxGeometry>
        </mxCell>
        <mxCell id="4vPuWXh4gn6PE7Pk4YV6-96" value="FileHandler.CSVWriter" style="endArrow=open;endSize=12;dashed=1;html=1;rounded=0;entryX=1.004;entryY=0.83;entryDx=0;entryDy=0;entryPerimeter=0;" edge="1" parent="WIyWlLk6GJQsqaUBKTNV-1" target="4vPuWXh4gn6PE7Pk4YV6-85">
          <mxGeometry x="0.1741" y="-1" width="160" relative="1" as="geometry">
            <mxPoint x="620" y="-60" as="sourcePoint" />
            <mxPoint x="-203" y="812" as="targetPoint" />
            <Array as="points">
              <mxPoint x="660" y="-60" />
              <mxPoint x="800" y="-60" />
              <mxPoint x="800" y="350" />
              <mxPoint x="800" y="590" />
              <mxPoint x="800" y="710" />
              <mxPoint x="800" y="830" />
            </Array>
            <mxPoint as="offset" />
          </mxGeometry>
        </mxCell>
        <mxCell id="4vPuWXh4gn6PE7Pk4YV6-97" value="" style="shape=folder;fontStyle=1;spacingTop=10;tabWidth=40;tabHeight=14;tabPosition=left;html=1;whiteSpace=wrap;fillColor=none;" vertex="1" parent="WIyWlLk6GJQsqaUBKTNV-1">
          <mxGeometry x="-30" y="-240" width="670" height="410" as="geometry" />
        </mxCell>
        <mxCell id="4vPuWXh4gn6PE7Pk4YV6-99" value="«interface»&lt;br&gt;&lt;b&gt;EmployeeHandler&lt;/b&gt;" style="html=1;whiteSpace=wrap;" vertex="1" parent="WIyWlLk6GJQsqaUBKTNV-1">
          <mxGeometry x="-490" y="295" width="110" height="50" as="geometry" />
        </mxCell>
        <mxCell id="4vPuWXh4gn6PE7Pk4YV6-100" value="" style="endArrow=block;dashed=1;endFill=0;endSize=12;html=1;rounded=0;exitX=0.5;exitY=0;exitDx=0;exitDy=0;entryX=0.535;entryY=0.998;entryDx=0;entryDy=0;entryPerimeter=0;" edge="1" parent="WIyWlLk6GJQsqaUBKTNV-1" source="4vPuWXh4gn6PE7Pk4YV6-99" target="4vPuWXh4gn6PE7Pk4YV6-23">
          <mxGeometry width="160" relative="1" as="geometry">
            <mxPoint x="-500" y="310" as="sourcePoint" />
            <mxPoint x="-340" y="310" as="targetPoint" />
          </mxGeometry>
        </mxCell>
        <mxCell id="4vPuWXh4gn6PE7Pk4YV6-101" value="" style="endArrow=block;dashed=1;endFill=0;endSize=12;html=1;rounded=0;exitX=1;exitY=0.5;exitDx=0;exitDy=0;entryX=1;entryY=0.5;entryDx=0;entryDy=0;" edge="1" parent="WIyWlLk6GJQsqaUBKTNV-1" source="4vPuWXh4gn6PE7Pk4YV6-99" target="4vPuWXh4gn6PE7Pk4YV6-18">
          <mxGeometry width="160" relative="1" as="geometry">
            <mxPoint x="-450" y="230" as="sourcePoint" />
            <mxPoint x="-310" y="20" as="targetPoint" />
            <Array as="points">
              <mxPoint x="-310" y="320" />
              <mxPoint x="-310" y="30" />
            </Array>
          </mxGeometry>
        </mxCell>
        <mxCell id="4vPuWXh4gn6PE7Pk4YV6-105" value="FileHandler.CSVReader" style="endArrow=open;endSize=12;dashed=1;html=1;rounded=0;exitX=0.251;exitY=1.417;exitDx=0;exitDy=0;exitPerimeter=0;entryX=0.382;entryY=0.069;entryDx=0;entryDy=0;entryPerimeter=0;" edge="1" parent="WIyWlLk6GJQsqaUBKTNV-1" source="4vPuWXh4gn6PE7Pk4YV6-31" target="4vPuWXh4gn6PE7Pk4YV6-85">
          <mxGeometry width="160" relative="1" as="geometry">
            <mxPoint x="-690" y="570" as="sourcePoint" />
            <mxPoint x="-530" y="570" as="targetPoint" />
          </mxGeometry>
        </mxCell>
        <mxCell id="4vPuWXh4gn6PE7Pk4YV6-106" value="FileHandler.CSVWriter" style="endArrow=open;endSize=12;dashed=1;html=1;rounded=0;exitX=0.085;exitY=1.417;exitDx=0;exitDy=0;exitPerimeter=0;entryX=0.189;entryY=0.081;entryDx=0;entryDy=0;entryPerimeter=0;" edge="1" parent="WIyWlLk6GJQsqaUBKTNV-1" source="4vPuWXh4gn6PE7Pk4YV6-31" target="4vPuWXh4gn6PE7Pk4YV6-85">
          <mxGeometry x="0.3618" y="5" width="160" relative="1" as="geometry">
            <mxPoint x="-690" y="570" as="sourcePoint" />
            <mxPoint x="-530" y="570" as="targetPoint" />
            <mxPoint as="offset" />
          </mxGeometry>
        </mxCell>
        <mxCell id="4vPuWXh4gn6PE7Pk4YV6-107" value="Login" style="swimlane;fontStyle=1;align=center;verticalAlign=top;childLayout=stackLayout;horizontal=1;startSize=26;horizontalStack=0;resizeParent=1;resizeParentMax=0;resizeLast=0;collapsible=1;marginBottom=0;whiteSpace=wrap;html=1;" vertex="1" parent="WIyWlLk6GJQsqaUBKTNV-1">
          <mxGeometry x="-720" y="1020" width="240" height="34" as="geometry" />
        </mxCell>
        <mxCell id="4vPuWXh4gn6PE7Pk4YV6-109" value="" style="line;strokeWidth=1;fillColor=none;align=left;verticalAlign=middle;spacingTop=-1;spacingLeft=3;spacingRight=3;rotatable=0;labelPosition=right;points=[];portConstraint=eastwest;strokeColor=inherit;" vertex="1" parent="4vPuWXh4gn6PE7Pk4YV6-107">
          <mxGeometry y="26" width="240" height="8" as="geometry" />
        </mxCell>
        <mxCell id="4vPuWXh4gn6PE7Pk4YV6-111" value="FileHandler.CSVWriter" style="endArrow=open;endSize=12;dashed=1;html=1;rounded=0;exitX=0.201;exitY=-0.008;exitDx=0;exitDy=0;exitPerimeter=0;entryX=-0.006;entryY=0.735;entryDx=0;entryDy=0;entryPerimeter=0;" edge="1" parent="WIyWlLk6GJQsqaUBKTNV-1" source="4vPuWXh4gn6PE7Pk4YV6-107" target="4vPuWXh4gn6PE7Pk4YV6-85">
          <mxGeometry x="-0.1756" width="160" relative="1" as="geometry">
            <mxPoint x="-510" y="1080" as="sourcePoint" />
            <mxPoint x="-350" y="1080" as="targetPoint" />
            <Array as="points">
              <mxPoint x="-670" y="820" />
              <mxPoint x="-590" y="820" />
            </Array>
            <mxPoint as="offset" />
          </mxGeometry>
        </mxCell>
        <mxCell id="4vPuWXh4gn6PE7Pk4YV6-112" value="FileHandler.CSVRReader" style="endArrow=open;endSize=12;dashed=1;html=1;rounded=0;entryX=0;entryY=0.937;entryDx=0;entryDy=0;entryPerimeter=0;exitX=0.542;exitY=0;exitDx=0;exitDy=0;exitPerimeter=0;" edge="1" parent="WIyWlLk6GJQsqaUBKTNV-1" source="4vPuWXh4gn6PE7Pk4YV6-107" target="4vPuWXh4gn6PE7Pk4YV6-85">
          <mxGeometry x="-0.2661" y="-1" width="160" relative="1" as="geometry">
            <mxPoint x="-580" y="1010" as="sourcePoint" />
            <mxPoint x="-300" y="1010" as="targetPoint" />
            <Array as="points">
              <mxPoint x="-590" y="851" />
            </Array>
            <mxPoint x="-1" as="offset" />
          </mxGeometry>
        </mxCell>
        <mxCell id="4vPuWXh4gn6PE7Pk4YV6-113" value="" style="endArrow=open;html=1;endSize=12;startArrow=diamondThin;startSize=14;startFill=1;edgeStyle=orthogonalEdgeStyle;align=left;verticalAlign=bottom;rounded=0;exitX=0.5;exitY=1;exitDx=0;exitDy=0;entryX=1;entryY=0.5;entryDx=0;entryDy=0;" edge="1" parent="WIyWlLk6GJQsqaUBKTNV-1" source="4vPuWXh4gn6PE7Pk4YV6-76" target="4vPuWXh4gn6PE7Pk4YV6-107">
          <mxGeometry x="-1" y="3" relative="1" as="geometry">
            <mxPoint x="-460" y="940" as="sourcePoint" />
            <mxPoint x="-400" y="980" as="targetPoint" />
          </mxGeometry>
        </mxCell>
        <mxCell id="4vPuWXh4gn6PE7Pk4YV6-114" value="Logins" style="swimlane;fontStyle=1;align=center;verticalAlign=top;childLayout=stackLayout;horizontal=1;startSize=26;horizontalStack=0;resizeParent=1;resizeParentMax=0;resizeLast=0;collapsible=1;marginBottom=0;whiteSpace=wrap;html=1;" vertex="1" parent="WIyWlLk6GJQsqaUBKTNV-1">
          <mxGeometry x="-660" y="1090" width="200" height="34" as="geometry" />
        </mxCell>
        <mxCell id="4vPuWXh4gn6PE7Pk4YV6-116" value="" style="line;strokeWidth=1;fillColor=none;align=left;verticalAlign=middle;spacingTop=-1;spacingLeft=3;spacingRight=3;rotatable=0;labelPosition=right;points=[];portConstraint=eastwest;strokeColor=inherit;" vertex="1" parent="4vPuWXh4gn6PE7Pk4YV6-114">
          <mxGeometry y="26" width="200" height="8" as="geometry" />
        </mxCell>
        <mxCell id="4vPuWXh4gn6PE7Pk4YV6-118" value="FileHandler.CSVReader" style="endArrow=open;endSize=12;dashed=1;html=1;rounded=0;exitX=0.5;exitY=0;exitDx=0;exitDy=0;entryX=0.396;entryY=0.996;entryDx=0;entryDy=0;entryPerimeter=0;" edge="1" parent="WIyWlLk6GJQsqaUBKTNV-1" source="4vPuWXh4gn6PE7Pk4YV6-114" target="4vPuWXh4gn6PE7Pk4YV6-85">
          <mxGeometry width="160" relative="1" as="geometry">
            <mxPoint x="-410" y="1010" as="sourcePoint" />
            <mxPoint x="-250" y="1010" as="targetPoint" />
            <Array as="points">
              <mxPoint x="-560" y="1070" />
              <mxPoint x="-330" y="1070" />
            </Array>
          </mxGeometry>
        </mxCell>
        <mxCell id="4vPuWXh4gn6PE7Pk4YV6-119" value="CLI" style="swimlane;fontStyle=1;align=center;verticalAlign=top;childLayout=stackLayout;horizontal=1;startSize=26;horizontalStack=0;resizeParent=1;resizeParentMax=0;resizeLast=0;collapsible=1;marginBottom=0;whiteSpace=wrap;html=1;" vertex="1" parent="WIyWlLk6GJQsqaUBKTNV-1">
          <mxGeometry x="-385" y="1090" width="200" height="34" as="geometry" />
        </mxCell>
        <mxCell id="4vPuWXh4gn6PE7Pk4YV6-121" value="" style="line;strokeWidth=1;fillColor=none;align=left;verticalAlign=middle;spacingTop=-1;spacingLeft=3;spacingRight=3;rotatable=0;labelPosition=right;points=[];portConstraint=eastwest;strokeColor=inherit;" vertex="1" parent="4vPuWXh4gn6PE7Pk4YV6-119">
          <mxGeometry y="26" width="200" height="8" as="geometry" />
        </mxCell>
        <mxCell id="4vPuWXh4gn6PE7Pk4YV6-123" value="FileHandler.CSVWriter" style="endArrow=open;endSize=12;dashed=1;html=1;rounded=0;exitX=0.644;exitY=-0.076;exitDx=0;exitDy=0;exitPerimeter=0;" edge="1" parent="WIyWlLk6GJQsqaUBKTNV-1">
          <mxGeometry x="0.0016" width="160" relative="1" as="geometry">
            <mxPoint x="-206.11000000000004" y="1089.996" as="sourcePoint" />
            <mxPoint x="-206" y="860" as="targetPoint" />
            <mxPoint as="offset" />
          </mxGeometry>
        </mxCell>
        <mxCell id="4vPuWXh4gn6PE7Pk4YV6-124" value="Occupations.PromotionManager" style="endArrow=open;endSize=12;dashed=1;html=1;rounded=0;entryX=0.681;entryY=1.003;entryDx=0;entryDy=0;entryPerimeter=0;exitX=1;exitY=0;exitDx=0;exitDy=0;" edge="1" parent="WIyWlLk6GJQsqaUBKTNV-1" source="4vPuWXh4gn6PE7Pk4YV6-119" target="4vPuWXh4gn6PE7Pk4YV6-71">
          <mxGeometry x="-0.3092" width="160" relative="1" as="geometry">
            <mxPoint x="-185" y="1106.29" as="sourcePoint" />
            <mxPoint x="-25" y="1106.29" as="targetPoint" />
            <Array as="points">
              <mxPoint x="338" y="1090" />
            </Array>
            <mxPoint x="-1" as="offset" />
          </mxGeometry>
        </mxCell>
        <mxCell id="4vPuWXh4gn6PE7Pk4YV6-125" value="PaymentProcess.PaymentCycleManager" style="endArrow=open;endSize=12;dashed=1;html=1;rounded=0;entryX=0.932;entryY=1.002;entryDx=0;entryDy=0;entryPerimeter=0;" edge="1" parent="WIyWlLk6GJQsqaUBKTNV-1" target="4vPuWXh4gn6PE7Pk4YV6-97">
          <mxGeometry x="-0.2708" width="160" relative="1" as="geometry">
            <mxPoint x="-185" y="1106.29" as="sourcePoint" />
            <mxPoint x="660" y="460" as="targetPoint" />
            <Array as="points">
              <mxPoint x="594" y="1106" />
            </Array>
            <mxPoint as="offset" />
          </mxGeometry>
        </mxCell>
        <mxCell id="4vPuWXh4gn6PE7Pk4YV6-126" value="PaymentProcess.Payslip" style="endArrow=open;endSize=12;dashed=1;html=1;rounded=0;entryX=0.979;entryY=1.01;entryDx=0;entryDy=0;entryPerimeter=0;" edge="1" parent="WIyWlLk6GJQsqaUBKTNV-1" target="4vPuWXh4gn6PE7Pk4YV6-97">
          <mxGeometry x="0.1167" width="160" relative="1" as="geometry">
            <mxPoint x="-185" y="1120" as="sourcePoint" />
            <mxPoint x="660" y="410" as="targetPoint" />
            <Array as="points">
              <mxPoint x="626" y="1120" />
            </Array>
            <mxPoint as="offset" />
          </mxGeometry>
        </mxCell>
        <mxCell id="4vPuWXh4gn6PE7Pk4YV6-127" value="UserType.Employee" style="endArrow=open;endSize=12;dashed=1;html=1;rounded=0;exitX=0.5;exitY=1;exitDx=0;exitDy=0;entryX=0.022;entryY=0.999;entryDx=0;entryDy=0;entryPerimeter=0;" edge="1" parent="WIyWlLk6GJQsqaUBKTNV-1" source="4vPuWXh4gn6PE7Pk4YV6-119" target="4vPuWXh4gn6PE7Pk4YV6-12">
          <mxGeometry x="-0.1255" width="160" relative="1" as="geometry">
            <mxPoint x="-690" y="880" as="sourcePoint" />
            <mxPoint x="-530" y="880" as="targetPoint" />
            <Array as="points">
              <mxPoint x="-285" y="1240" />
              <mxPoint x="-800" y="1240" />
            </Array>
            <mxPoint as="offset" />
          </mxGeometry>
        </mxCell>
        <mxCell id="4vPuWXh4gn6PE7Pk4YV6-128" value="UserType.Employees" style="endArrow=open;endSize=12;dashed=1;html=1;rounded=0;exitX=0.75;exitY=1;exitDx=0;exitDy=0;entryX=0.137;entryY=1.004;entryDx=0;entryDy=0;entryPerimeter=0;" edge="1" parent="WIyWlLk6GJQsqaUBKTNV-1" source="4vPuWXh4gn6PE7Pk4YV6-119" target="4vPuWXh4gn6PE7Pk4YV6-12">
          <mxGeometry x="-0.2061" width="160" relative="1" as="geometry">
            <mxPoint x="-670" y="930" as="sourcePoint" />
            <mxPoint x="-670" y="710" as="targetPoint" />
            <Array as="points">
              <mxPoint x="-235" y="1200" />
              <mxPoint x="-740" y="1200" />
            </Array>
            <mxPoint as="offset" />
          </mxGeometry>
        </mxCell>
        <mxCell id="4vPuWXh4gn6PE7Pk4YV6-129" value="UserType.PartTime" style="endArrow=open;endSize=12;dashed=1;html=1;rounded=0;exitX=0.25;exitY=1;exitDx=0;exitDy=0;entryX=0.077;entryY=1.004;entryDx=0;entryDy=0;entryPerimeter=0;" edge="1" parent="WIyWlLk6GJQsqaUBKTNV-1" source="4vPuWXh4gn6PE7Pk4YV6-119" target="4vPuWXh4gn6PE7Pk4YV6-12">
          <mxGeometry x="-0.6249" width="160" relative="1" as="geometry">
            <mxPoint x="-670" y="1050" as="sourcePoint" />
            <mxPoint x="-700" y="770" as="targetPoint" />
            <Array as="points">
              <mxPoint x="-335" y="1160" />
              <mxPoint x="-780" y="1160" />
            </Array>
            <mxPoint as="offset" />
          </mxGeometry>
        </mxCell>
        <mxCell id="4vPuWXh4gn6PE7Pk4YV6-130" value="UserType.UserTypes" style="endArrow=open;endSize=12;dashed=1;html=1;rounded=0;exitX=0;exitY=1;exitDx=0;exitDy=0;entryX=0.109;entryY=1.004;entryDx=0;entryDy=0;entryPerimeter=0;" edge="1" parent="WIyWlLk6GJQsqaUBKTNV-1" source="4vPuWXh4gn6PE7Pk4YV6-119" target="4vPuWXh4gn6PE7Pk4YV6-12">
          <mxGeometry x="-0.4157" width="160" relative="1" as="geometry">
            <mxPoint x="-670" y="1050" as="sourcePoint" />
            <mxPoint x="-650" y="780" as="targetPoint" />
            <Array as="points">
              <mxPoint x="-385" y="1140" />
              <mxPoint x="-760" y="1140" />
            </Array>
            <mxPoint as="offset" />
          </mxGeometry>
        </mxCell>
        <mxCell id="4vPuWXh4gn6PE7Pk4YV6-132" value="" style="shape=folder;fontStyle=1;spacingTop=10;tabWidth=40;tabHeight=14;tabPosition=left;html=1;whiteSpace=wrap;fillColor=none;" vertex="1" parent="WIyWlLk6GJQsqaUBKTNV-1">
          <mxGeometry x="-730" y="980" width="560" height="200" as="geometry" />
        </mxCell>
        <mxCell id="4vPuWXh4gn6PE7Pk4YV6-133" value="Login.Login" style="endArrow=open;endSize=12;dashed=1;html=1;rounded=0;strokeColor=default;align=center;verticalAlign=middle;fontFamily=Helvetica;fontSize=11;fontColor=default;labelBackgroundColor=default;exitX=0;exitY=0.453;exitDx=0;exitDy=0;exitPerimeter=0;entryX=0.008;entryY=0.586;entryDx=0;entryDy=0;entryPerimeter=0;" edge="1" parent="WIyWlLk6GJQsqaUBKTNV-1" source="4vPuWXh4gn6PE7Pk4YV6-3" target="4vPuWXh4gn6PE7Pk4YV6-132">
          <mxGeometry width="160" relative="1" as="geometry">
            <mxPoint x="-870" y="460" as="sourcePoint" />
            <mxPoint x="-740" y="680" as="targetPoint" />
            <Array as="points">
              <mxPoint x="-890" y="230" />
              <mxPoint x="-880" y="1097" />
              <mxPoint x="-765" y="1100" />
            </Array>
          </mxGeometry>
        </mxCell>
        <mxCell id="4vPuWXh4gn6PE7Pk4YV6-134" value="Occupation.Occupation" style="endArrow=open;endSize=12;dashed=1;html=1;rounded=0;strokeColor=default;align=center;verticalAlign=middle;fontFamily=Helvetica;fontSize=11;fontColor=default;labelBackgroundColor=default;exitX=1.005;exitY=0.875;exitDx=0;exitDy=0;exitPerimeter=0;" edge="1" parent="WIyWlLk6GJQsqaUBKTNV-1" source="4vPuWXh4gn6PE7Pk4YV6-3">
          <mxGeometry width="160" relative="1" as="geometry">
            <mxPoint x="-870" y="730" as="sourcePoint" />
            <mxPoint x="-50" y="540" as="targetPoint" />
            <Array as="points">
              <mxPoint x="-550" y="320" />
              <mxPoint x="-550" y="360" />
              <mxPoint x="-460" y="360" />
              <mxPoint x="-140" y="360" />
              <mxPoint x="-140" y="450" />
              <mxPoint x="-140" y="540" />
            </Array>
          </mxGeometry>
        </mxCell>
        <mxCell id="4vPuWXh4gn6PE7Pk4YV6-135" value="Occupation.OccupationMenu" style="endArrow=open;endSize=12;dashed=1;html=1;rounded=0;strokeColor=default;align=center;verticalAlign=middle;fontFamily=Helvetica;fontSize=11;fontColor=default;labelBackgroundColor=default;exitX=1.005;exitY=0.875;exitDx=0;exitDy=0;exitPerimeter=0;entryX=-0.004;entryY=0.828;entryDx=0;entryDy=0;entryPerimeter=0;" edge="1" parent="WIyWlLk6GJQsqaUBKTNV-1">
          <mxGeometry x="-0.4058" y="1" width="160" relative="1" as="geometry">
            <mxPoint x="-610" y="333.5" as="sourcePoint" />
            <mxPoint x="-53" y="556.5" as="targetPoint" />
            <Array as="points">
              <mxPoint x="-560" y="334" />
              <mxPoint x="-560" y="374" />
              <mxPoint x="-461" y="373.5" />
              <mxPoint x="-150" y="380" />
              <mxPoint x="-150" y="470" />
              <mxPoint x="-150" y="557" />
            </Array>
            <mxPoint x="1" as="offset" />
          </mxGeometry>
        </mxCell>
        <mxCell id="4vPuWXh4gn6PE7Pk4YV6-138" value="MainMenu" style="swimlane;fontStyle=1;align=center;verticalAlign=top;childLayout=stackLayout;horizontal=1;startSize=26;horizontalStack=0;resizeParent=1;resizeParentMax=0;resizeLast=0;collapsible=1;marginBottom=0;whiteSpace=wrap;html=1;fontFamily=Helvetica;fontSize=11;fontColor=default;labelBackgroundColor=default;" vertex="1" parent="WIyWlLk6GJQsqaUBKTNV-1">
          <mxGeometry x="-40" y="1230" width="160" height="34" as="geometry" />
        </mxCell>
        <mxCell id="4vPuWXh4gn6PE7Pk4YV6-140" value="" style="line;strokeWidth=1;fillColor=none;align=left;verticalAlign=middle;spacingTop=-1;spacingLeft=3;spacingRight=3;rotatable=0;labelPosition=right;points=[];portConstraint=eastwest;strokeColor=inherit;fontFamily=Helvetica;fontSize=11;fontColor=default;labelBackgroundColor=default;" vertex="1" parent="4vPuWXh4gn6PE7Pk4YV6-138">
          <mxGeometry y="26" width="160" height="8" as="geometry" />
        </mxCell>
        <mxCell id="4vPuWXh4gn6PE7Pk4YV6-142" value="Login.CLI" style="endArrow=open;endSize=12;dashed=1;html=1;rounded=0;strokeColor=default;align=center;verticalAlign=middle;fontFamily=Helvetica;fontSize=11;fontColor=default;labelBackgroundColor=default;exitX=0.5;exitY=0;exitDx=0;exitDy=0;entryX=1.006;entryY=0.89;entryDx=0;entryDy=0;entryPerimeter=0;" edge="1" parent="WIyWlLk6GJQsqaUBKTNV-1" source="4vPuWXh4gn6PE7Pk4YV6-138" target="4vPuWXh4gn6PE7Pk4YV6-132">
          <mxGeometry width="160" relative="1" as="geometry">
            <mxPoint x="-20" y="1120" as="sourcePoint" />
            <mxPoint x="140" y="1120" as="targetPoint" />
          </mxGeometry>
        </mxCell>
        <mxCell id="4vPuWXh4gn6PE7Pk4YV6-144" value="Main" style="swimlane;fontStyle=1;align=center;verticalAlign=top;childLayout=stackLayout;horizontal=1;startSize=26;horizontalStack=0;resizeParent=1;resizeParentMax=0;resizeLast=0;collapsible=1;marginBottom=0;whiteSpace=wrap;html=1;fontFamily=Helvetica;fontSize=11;fontColor=default;labelBackgroundColor=default;" vertex="1" parent="WIyWlLk6GJQsqaUBKTNV-1">
          <mxGeometry x="300" y="1210" width="160" height="34" as="geometry" />
        </mxCell>
        <mxCell id="4vPuWXh4gn6PE7Pk4YV6-146" value="" style="line;strokeWidth=1;fillColor=none;align=left;verticalAlign=middle;spacingTop=-1;spacingLeft=3;spacingRight=3;rotatable=0;labelPosition=right;points=[];portConstraint=eastwest;strokeColor=inherit;fontFamily=Helvetica;fontSize=11;fontColor=default;labelBackgroundColor=default;" vertex="1" parent="4vPuWXh4gn6PE7Pk4YV6-144">
          <mxGeometry y="26" width="160" height="8" as="geometry" />
        </mxCell>
        <mxCell id="4vPuWXh4gn6PE7Pk4YV6-148" value="Menu.MainMenu" style="endArrow=open;endSize=12;dashed=1;html=1;rounded=0;strokeColor=default;align=center;verticalAlign=middle;fontFamily=Helvetica;fontSize=11;fontColor=default;labelBackgroundColor=default;exitX=0;exitY=0.5;exitDx=0;exitDy=0;entryX=0;entryY=0;entryDx=180;entryDy=38;entryPerimeter=0;" edge="1" parent="WIyWlLk6GJQsqaUBKTNV-1" source="4vPuWXh4gn6PE7Pk4YV6-144">
          <mxGeometry width="160" relative="1" as="geometry">
            <mxPoint x="170" y="1200" as="sourcePoint" />
            <mxPoint x="130" y="1245.9999999999995" as="targetPoint" />
          </mxGeometry>
        </mxCell>
      </root>
    </mxGraphModel>
  </diagram>
</mxfile>
